<svg width="123" height="42" viewBox="0 0 123 42" fill="none" xmlns="http://www.w3.org/2000/svg">
<g filter="url(#filter0_d_17_477)">
<rect x="5" y="5" width="111" height="30" rx="5" stroke="#B8A2F8" stroke-width="2" shape-rendering="crispEdges"/>
<path d="M25 11.6667H35C35.442 11.6667 35.8659 11.8423 36.1785 12.1549C36.4911 12.4675 36.6666 12.8914 36.6666 13.3334V26.6667C36.6666 27.1088 36.4911 27.5327 36.1785 27.8453C35.8659 28.1578 35.442 28.3334 35 28.3334H25C24.558 28.3334 24.134 28.1578 23.8215 27.8453C23.5089 27.5327 23.3333 27.1088 23.3333 26.6667V13.3334C23.3333 12.8914 23.5089 12.4675 23.8215 12.1549C24.134 11.8423 24.558 11.6667 25 11.6667ZM30.625 21.2501C32.9166 21.2501 33.5333 19.5584 33.6916 18.6667C34.45 18.4251 35 17.7167 35 16.8751C35 15.8334 34.1666 15.0001 33.125 15.0001C32.0833 15.0001 31.25 15.8334 31.25 16.8751C31.25 17.6584 31.725 18.3334 32.4083 18.6084C32.225 19.1667 31.6666 20.0001 30 20.0001C28.85 20.0001 28.05 20.2917 27.5 20.7001V17.3917C28.225 17.1334 28.75 16.4417 28.75 15.6251C28.75 14.5834 27.9166 13.7501 26.875 13.7501C25.8333 13.7501 25 14.5834 25 15.6251C25 16.4417 25.525 17.1334 26.25 17.3917V22.6084C25.525 22.8667 25 23.5584 25 24.3751C25 25.4167 25.8333 26.2501 26.875 26.2501C27.9166 26.2501 28.75 25.4167 28.75 24.3751C28.75 23.6001 28.2833 22.9167 27.6083 22.6501C27.8416 22.0834 28.525 21.2501 30.625 21.2501ZM26.875 23.7501C27.0407 23.7501 27.1997 23.8159 27.3169 23.9331C27.4341 24.0503 27.5 24.2093 27.5 24.3751C27.5 24.5408 27.4341 24.6998 27.3169 24.817C27.1997 24.9342 27.0407 25.0001 26.875 25.0001C26.7092 25.0001 26.5502 24.9342 26.433 24.817C26.3158 24.6998 26.25 24.5408 26.25 24.3751C26.25 24.2093 26.3158 24.0503 26.433 23.9331C26.5502 23.8159 26.7092 23.7501 26.875 23.7501ZM26.875 15.0001C27.0407 15.0001 27.1997 15.0659 27.3169 15.1831C27.4341 15.3003 27.5 15.4593 27.5 15.6251C27.5 15.7908 27.4341 15.9498 27.3169 16.067C27.1997 16.1842 27.0407 16.2501 26.875 16.2501C26.7092 16.2501 26.5502 16.1842 26.433 16.067C26.3158 15.9498 26.25 15.7908 26.25 15.6251C26.25 15.4593 26.3158 15.3003 26.433 15.1831C26.5502 15.0659 26.7092 15.0001 26.875 15.0001ZM33.125 16.2501C33.2907 16.2501 33.4497 16.3159 33.5669 16.4331C33.6841 16.5503 33.75 16.7093 33.75 16.8751C33.75 17.0408 33.6841 17.1998 33.5669 17.317C33.4497 17.4342 33.2907 17.5001 33.125 17.5001C32.9592 17.5001 32.8002 17.4342 32.683 17.317C32.5658 17.1998 32.5 17.0408 32.5 16.8751C32.5 16.7093 32.5658 16.5503 32.683 16.4331C32.8002 16.3159 32.9592 16.2501 33.125 16.2501Z" fill="#BAA3FD"/>
<path d="M54.256 25.14C53.6027 25.14 53.0287 25.0187 52.534 24.776C52.0487 24.524 51.6707 24.174 51.4 23.726C51.1387 23.2687 51.008 22.732 51.008 22.116V17.664C51.008 17.0387 51.1387 16.502 51.4 16.054C51.6707 15.606 52.0487 15.2607 52.534 15.018C53.0287 14.766 53.6027 14.64 54.256 14.64C54.9187 14.64 55.488 14.766 55.964 15.018C56.4493 15.2607 56.8273 15.606 57.098 16.054C57.3687 16.502 57.504 17.0387 57.504 17.664H55.74C55.74 17.1787 55.6093 16.81 55.348 16.558C55.096 16.306 54.732 16.18 54.256 16.18C53.78 16.18 53.4113 16.306 53.15 16.558C52.8887 16.81 52.758 17.174 52.758 17.65V22.116C52.758 22.592 52.8887 22.9607 53.15 23.222C53.4113 23.4833 53.78 23.614 54.256 23.614C54.732 23.614 55.096 23.4833 55.348 23.222C55.6093 22.9607 55.74 22.592 55.74 22.116V21.08H54.004V19.568H57.504V22.116C57.504 22.732 57.3687 23.2687 57.098 23.726C56.8273 24.174 56.4493 24.524 55.964 24.776C55.488 25.0187 54.9187 25.14 54.256 25.14ZM59.6545 25V23.46H61.7125V16.32H59.6545V14.78H65.5345V16.32H63.4765V23.46H65.5345V25H59.6545ZM70.1071 25V16.404H67.4331V14.78H74.5451V16.404H71.8711V25H70.1071ZM76.2616 25V14.78H78.0116V18.882H80.7556V14.78H82.5056V25H80.7556V20.506H78.0116V25H76.2616ZM87.7781 25.14C86.7795 25.14 85.9955 24.8693 85.4261 24.328C84.8661 23.7773 84.5861 23.0307 84.5861 22.088V14.78H86.3501V22.074C86.3501 22.5593 86.4715 22.9373 86.7141 23.208C86.9568 23.4787 87.3115 23.614 87.7781 23.614C88.2355 23.614 88.5855 23.4787 88.8281 23.208C89.0801 22.9373 89.2061 22.5593 89.2061 22.074V14.78H90.9701V22.088C90.9701 23.0307 90.6901 23.7773 90.1301 24.328C89.5701 24.8693 88.7861 25.14 87.7781 25.14ZM93.0507 25V14.78H96.1867C97.176 14.78 97.96 15.018 98.5387 15.494C99.1173 15.9607 99.4067 16.6 99.4067 17.412C99.4067 17.8693 99.304 18.266 99.0987 18.602C98.8933 18.938 98.6133 19.1993 98.2587 19.386C97.9133 19.5727 97.512 19.666 97.0547 19.666V19.61C97.5493 19.6007 97.988 19.694 98.3707 19.89C98.7627 20.0767 99.0707 20.3567 99.2947 20.73C99.528 21.1033 99.6447 21.556 99.6447 22.088C99.6447 22.676 99.5093 23.1893 99.2387 23.628C98.968 24.0667 98.5853 24.4073 98.0907 24.65C97.6053 24.8833 97.022 25 96.3407 25H93.0507ZM94.7587 23.544H96.2287C96.742 23.544 97.1433 23.4087 97.4327 23.138C97.7313 22.858 97.8807 22.48 97.8807 22.004C97.8807 21.528 97.7313 21.1453 97.4327 20.856C97.1433 20.5573 96.742 20.408 96.2287 20.408H94.7587V23.544ZM94.7587 18.994H96.1587C96.6253 18.994 96.9893 18.8727 97.2507 18.63C97.5213 18.378 97.6567 18.0373 97.6567 17.608C97.6567 17.1787 97.5213 16.8427 97.2507 16.6C96.9893 16.3573 96.6253 16.236 96.1587 16.236H94.7587V18.994Z" fill="#BAA3FD"/>
</g>
<defs>
<filter id="filter0_d_17_477" x="0" y="0" width="123" height="42" filterUnits="userSpaceOnUse" color-interpolation-filters="sRGB">
<feFlood flood-opacity="0" result="BackgroundImageFix"/>
<feColorMatrix in="SourceAlpha" type="matrix" values="0 0 0 0 0 0 0 0 0 0 0 0 0 0 0 0 0 0 127 0" result="hardAlpha"/>
<feOffset dx="1" dy="1"/>
<feGaussianBlur stdDeviation="2.5"/>
<feComposite in2="hardAlpha" operator="out"/>
<feColorMatrix type="matrix" values="0 0 0 0 0.168627 0 0 0 0 0.0862745 0 0 0 0 0.403922 0 0 0 0.2 0"/>
<feBlend mode="normal" in2="BackgroundImageFix" result="effect1_dropShadow_17_477"/>
<feBlend mode="normal" in="SourceGraphic" in2="effect1_dropShadow_17_477" result="shape"/>
</filter>
</defs>
</svg>
