<svg width="148" height="42" viewBox="0 0 148 42" fill="none" xmlns="http://www.w3.org/2000/svg">
<g filter="url(#filter0_d_17_477)">
<rect x="5" y="5" width="136" height="30" rx="5" stroke="#B8A2F8" stroke-width="2" shape-rendering="crispEdges"/>
<path d="M25 11.6667H35C35.442 11.6667 35.8659 11.8423 36.1785 12.1549C36.4911 12.4675 36.6666 12.8914 36.6666 13.3334V26.6667C36.6666 27.1088 36.4911 27.5327 36.1785 27.8453C35.8659 28.1578 35.442 28.3334 35 28.3334H25C24.558 28.3334 24.134 28.1578 23.8215 27.8453C23.5089 27.5327 23.3333 27.1088 23.3333 26.6667V13.3334C23.3333 12.8914 23.5089 12.4675 23.8215 12.1549C24.134 11.8423 24.558 11.6667 25 11.6667ZM30.625 21.2501C32.9166 21.2501 33.5333 19.5584 33.6916 18.6667C34.45 18.4251 35 17.7167 35 16.8751C35 15.8334 34.1666 15.0001 33.125 15.0001C32.0833 15.0001 31.25 15.8334 31.25 16.8751C31.25 17.6584 31.725 18.3334 32.4083 18.6084C32.225 19.1667 31.6666 20.0001 30 20.0001C28.85 20.0001 28.05 20.2917 27.5 20.7001V17.3917C28.225 17.1334 28.75 16.4417 28.75 15.6251C28.75 14.5834 27.9166 13.7501 26.875 13.7501C25.8333 13.7501 25 14.5834 25 15.6251C25 16.4417 25.525 17.1334 26.25 17.3917V22.6084C25.525 22.8667 25 23.5584 25 24.3751C25 25.4167 25.8333 26.2501 26.875 26.2501C27.9166 26.2501 28.75 25.4167 28.75 24.3751C28.75 23.6001 28.2833 22.9167 27.6083 22.6501C27.8416 22.0834 28.525 21.2501 30.625 21.2501ZM26.875 23.7501C27.0407 23.7501 27.1997 23.8159 27.3169 23.9331C27.4341 24.0503 27.5 24.2093 27.5 24.3751C27.5 24.5408 27.4341 24.6998 27.3169 24.817C27.1997 24.9342 27.0407 25.0001 26.875 25.0001C26.7092 25.0001 26.5502 24.9342 26.433 24.817C26.3158 24.6998 26.25 24.5408 26.25 24.3751C26.25 24.2093 26.3158 24.0503 26.433 23.9331C26.5502 23.8159 26.7092 23.7501 26.875 23.7501ZM26.875 15.0001C27.0407 15.0001 27.1997 15.0659 27.3169 15.1831C27.4341 15.3003 27.5 15.4593 27.5 15.6251C27.5 15.7908 27.4341 15.9498 27.3169 16.067C27.1997 16.1842 27.0407 16.2501 26.875 16.2501C26.7092 16.2501 26.5502 16.1842 26.433 16.067C26.3158 15.9498 26.25 15.7908 26.25 15.6251C26.25 15.4593 26.3158 15.3003 26.433 15.1831C26.5502 15.0659 26.7092 15.0001 26.875 15.0001ZM33.125 16.2501C33.2907 16.2501 33.4497 16.3159 33.5669 16.4331C33.6841 16.5503 33.75 16.7093 33.75 16.8751C33.75 17.0408 33.6841 17.1998 33.5669 17.317C33.4497 17.4342 33.2907 17.5001 33.125 17.5001C32.9592 17.5001 32.8002 17.4342 32.683 17.317C32.5658 17.1998 32.5 17.0408 32.5 16.8751C32.5 16.7093 32.5658 16.5503 32.683 16.4331C32.8002 16.3159 32.9592 16.2501 33.125 16.2501Z" fill="#BAA3FD"/>
<path d="M50.49 25L53.066 14.78H55.32L57.91 25H56.118L55.558 22.522H52.842L52.282 25H50.49ZM53.164 21.094H55.236L54.62 18.35C54.5173 17.8927 54.4287 17.482 54.354 17.118C54.2793 16.7447 54.228 16.474 54.2 16.306C54.172 16.474 54.1207 16.7447 54.046 17.118C53.9807 17.482 53.892 17.888 53.78 18.336L53.164 21.094ZM59.8365 25V14.78H61.5865V23.376H65.9265V25H59.8365ZM68.2311 25V14.78H69.9811V23.376H74.3211V25H68.2311ZM84.6421 25V14.78H87.8761C88.5575 14.78 89.1455 14.906 89.6401 15.158C90.1441 15.41 90.5361 15.7647 90.8161 16.222C91.0961 16.67 91.2361 17.202 91.2361 17.818C91.2361 18.49 91.0635 19.0827 90.7181 19.596C90.3821 20.1093 89.9248 20.4733 89.3461 20.688L91.3761 25H89.4161L87.6381 20.94H86.3921V25H84.6421ZM86.3921 19.4H87.8761C88.3708 19.4 88.7581 19.2647 89.0381 18.994C89.3181 18.7233 89.4581 18.35 89.4581 17.874C89.4581 17.3887 89.3181 17.0107 89.0381 16.74C88.7581 16.46 88.3708 16.32 87.8761 16.32H86.3921V19.4ZM93.2047 25V14.78H99.3367V16.306H94.9267V18.966H98.8467V20.478H94.9267V23.474H99.3367V25H93.2047ZM101.445 25V14.78H104.847C105.529 14.78 106.121 14.9107 106.625 15.172C107.139 15.4333 107.535 15.802 107.815 16.278C108.095 16.7447 108.235 17.2953 108.235 17.93C108.235 18.5553 108.091 19.106 107.801 19.582C107.521 20.058 107.129 20.4267 106.625 20.688C106.121 20.9493 105.529 21.08 104.847 21.08H103.195V25H101.445ZM103.195 19.498H104.847C105.333 19.498 105.72 19.358 106.009 19.078C106.308 18.7887 106.457 18.406 106.457 17.93C106.457 17.4447 106.308 17.062 106.009 16.782C105.72 16.502 105.333 16.362 104.847 16.362H103.195V19.498ZM112.962 25.14C112.308 25.14 111.739 25.0187 111.254 24.776C110.778 24.524 110.409 24.174 110.148 23.726C109.896 23.2687 109.77 22.732 109.77 22.116V17.664C109.77 17.048 109.896 16.516 110.148 16.068C110.409 15.6107 110.778 15.2607 111.254 15.018C111.739 14.766 112.308 14.64 112.962 14.64C113.624 14.64 114.194 14.766 114.67 15.018C115.146 15.2607 115.51 15.6107 115.762 16.068C116.023 16.516 116.154 17.0433 116.154 17.65V22.116C116.154 22.732 116.023 23.2687 115.762 23.726C115.51 24.174 115.146 24.524 114.67 24.776C114.194 25.0187 113.624 25.14 112.962 25.14ZM112.962 23.6C113.438 23.6 113.797 23.474 114.04 23.222C114.282 22.9607 114.404 22.592 114.404 22.116V17.664C114.404 17.1787 114.282 16.81 114.04 16.558C113.797 16.306 113.438 16.18 112.962 16.18C112.486 16.18 112.126 16.306 111.884 16.558C111.641 16.81 111.52 17.1787 111.52 17.664V22.116C111.52 22.592 111.641 22.9607 111.884 23.222C112.136 23.474 112.495 23.6 112.962 23.6ZM121.384 25.14C120.684 25.14 120.078 25.0233 119.564 24.79C119.051 24.5567 118.654 24.2253 118.374 23.796C118.104 23.3573 117.964 22.844 117.954 22.256H119.704C119.704 22.676 119.854 23.0073 120.152 23.25C120.46 23.4833 120.876 23.6 121.398 23.6C121.902 23.6 122.294 23.4833 122.574 23.25C122.864 23.0167 123.008 22.6947 123.008 22.284C123.008 21.9387 122.906 21.64 122.7 21.388C122.504 21.1267 122.22 20.9493 121.846 20.856L120.67 20.534C119.868 20.3287 119.247 19.96 118.808 19.428C118.379 18.896 118.164 18.252 118.164 17.496C118.164 16.9173 118.295 16.4133 118.556 15.984C118.818 15.5547 119.186 15.2233 119.662 14.99C120.148 14.7567 120.717 14.64 121.37 14.64C122.36 14.64 123.144 14.8967 123.722 15.41C124.301 15.914 124.595 16.5953 124.604 17.454H122.854C122.854 17.0527 122.724 16.74 122.462 16.516C122.201 16.2827 121.832 16.166 121.356 16.166C120.899 16.166 120.544 16.2733 120.292 16.488C120.04 16.7027 119.914 17.006 119.914 17.398C119.914 17.7527 120.008 18.056 120.194 18.308C120.39 18.5507 120.67 18.7233 121.034 18.826L122.252 19.162C123.064 19.3673 123.685 19.736 124.114 20.268C124.544 20.7907 124.758 21.4393 124.758 22.214C124.758 22.7927 124.618 23.306 124.338 23.754C124.058 24.1927 123.666 24.5333 123.162 24.776C122.658 25.0187 122.066 25.14 121.384 25.14Z" fill="#BAA3FD"/>
</g>
<defs>
<filter id="filter0_d_17_477" x="0" y="0" width="148" height="42" filterUnits="userSpaceOnUse" color-interpolation-filters="sRGB">
<feFlood flood-opacity="0" result="BackgroundImageFix"/>
<feColorMatrix in="SourceAlpha" type="matrix" values="0 0 0 0 0 0 0 0 0 0 0 0 0 0 0 0 0 0 127 0" result="hardAlpha"/>
<feOffset dx="1" dy="1"/>
<feGaussianBlur stdDeviation="2.5"/>
<feComposite in2="hardAlpha" operator="out"/>
<feColorMatrix type="matrix" values="0 0 0 0 0.168627 0 0 0 0 0.0862745 0 0 0 0 0.403922 0 0 0 0.2 0"/>
<feBlend mode="normal" in2="BackgroundImageFix" result="effect1_dropShadow_17_477"/>
<feBlend mode="normal" in="SourceGraphic" in2="effect1_dropShadow_17_477" result="shape"/>
</filter>
</defs>
</svg>
