<svg width="200" height="236" viewBox="0 0 200 236" fill="none" xmlns="http://www.w3.org/2000/svg">
<path fill-rule="evenodd" clip-rule="evenodd" d="M81.1808 12.9844C87.3538 10.4414 93.7206 8.98438 100 8.98438C106.28 8.98438 112.647 10.4414 118.82 12.9844C119.651 15.5332 120.334 18.7504 120.725 22.2629C121.237 26.8684 121.401 31.9141 121.455 36.6457C108.227 35.1988 91.7733 35.1988 78.5452 36.6457C78.5999 31.9141 78.764 26.8687 79.2757 22.2633C79.6663 18.75 80.3503 15.5332 81.1808 12.9844ZM149.549 25.6117C146.356 22.3477 142.922 19.2914 139.283 16.5359L153.077 18.6996C151.382 20.6523 150.147 23.0141 149.549 25.6117ZM18.7503 25C18.7503 21.548 21.5483 18.75 25.0003 18.75C28.4522 18.75 31.2503 21.548 31.2503 25C31.2491 26.0177 30.9994 27.0198 30.5228 27.9191C30.0463 28.8184 29.3574 29.5877 28.5159 30.1602V54.5C28.5159 54.5 26.3243 54.5878 25.0002 55C23.5214 55.4604 21.4846 56.5 21.4846 56.5V30.1668C20.6423 29.5937 19.9527 28.8233 19.4762 27.9228C18.9996 27.0223 18.7504 26.0189 18.7503 25ZM156.176 29.1719C156.176 24.168 160.156 20.1875 165.16 20.1875C170.164 20.1875 174.145 24.168 174.145 29.1719C174.145 34.1758 170.164 38.1562 165.16 38.1562C160.156 38.1562 156.176 34.1758 156.176 29.1719ZM165.161 45.1875C168.877 45.1875 172.306 43.8992 175.032 41.752L176.887 55.6145L165.226 46.8684C164.923 46.2958 164.613 45.7268 164.296 45.1613C164.583 45.177 164.87 45.1875 165.161 45.1875ZM60.9483 49.0254C67.1893 44.1961 75.0015 42.7637 81.7425 42.7285C84.5148 42.7177 87.2836 42.9276 90.0225 43.357C60.9285 57.6322 54.5823 81.3041 48.2361 104.976C48.1129 105.435 47.9897 105.895 47.8663 106.355C44.1382 93.8547 50.5444 57.0754 60.9483 49.0254ZM15.6839 69.9758C17.0984 63.6378 28.9866 59.998 28.9866 59.998C22.6854 77.5922 20.6655 97.9832 24.9417 116.156C24.9417 116.156 8.30996 107.194 10.0276 98.2602C10.4946 95.8312 10.9071 93.6409 11.3003 91.553C12.5681 84.8215 13.6356 79.1534 15.6839 69.9758ZM175.059 116.156C179.335 97.9832 177.315 77.5926 171.014 59.998C171.014 59.998 183.055 63.605 184.317 69.975C184.947 73.1554 185.52 76.0841 186.063 78.8639C187.405 85.7204 188.569 91.6711 189.973 98.2594C191.869 107.157 175.059 116.156 175.059 116.156ZM37.6421 149.361C38.8257 148.178 40.2589 147.305 41.6585 146.848C52.7749 157.054 68.5663 162.212 83.9843 164.212V174.997C75.2389 173.17 65.7964 170.254 57.5241 167.036C50.6276 164.354 44.5014 161.472 40.2565 158.98C38.1339 157.735 36.4776 156.57 35.5194 155.715C35.1175 155.357 34.9545 155.067 34.8668 154.912C34.8584 154.897 34.8508 154.883 34.8436 154.871C35.0327 153.045 36.0264 150.977 37.6421 149.361ZM116.016 164.211C131.434 162.211 147.226 157.053 158.342 146.848C159.741 147.305 161.175 148.177 162.358 149.361C163.974 150.976 164.968 153.044 165.156 154.87C165.149 154.883 165.141 154.897 165.133 154.912C165.045 155.067 164.882 155.357 164.481 155.714C163.523 156.57 161.866 157.734 159.744 158.98C155.499 161.471 149.373 164.354 142.476 167.035C134.203 170.253 124.761 173.17 116.016 174.996V164.211ZM10.0315 175.84C13.9088 165.678 30.2042 160.391 30.2042 160.391C30.3499 160.524 30.4967 160.655 30.6439 160.787C30.7086 160.845 30.7734 160.902 30.8382 160.961C32.3702 162.327 34.3272 163.653 36.6968 165.044C41.4362 167.825 47.81 170.803 54.9761 173.59C69.3081 179.163 86.6214 183.984 100 183.984C113.379 183.984 130.692 179.163 145.024 173.589C152.19 170.802 158.564 167.825 163.304 165.043C165.673 163.652 167.63 162.327 169.162 160.961C169.374 160.77 169.587 160.582 169.796 160.391C169.796 160.391 186.092 165.678 189.969 175.84C190.051 176.054 190.134 176.273 190.22 176.497C192.642 182.821 196.528 192.969 189.969 192.969H178.516V185.938C178.516 185 171.485 185 171.485 185.938V192.969C171.485 192.969 128.278 209 100 209C71.723 209 28.5159 192.969 28.5159 192.969V185.938C28.5159 185 21.4846 185 21.4846 185.938V192.969H10.0315C3.47265 192.969 7.35859 182.821 9.78035 176.497C9.86608 176.273 9.94999 176.054 10.0315 175.84ZM91.0159 176.241V164.916C96.998 165.34 103.003 165.34 108.985 164.916V176.241C105.767 176.695 102.73 176.953 100 176.953C97.2706 176.953 94.2331 176.695 91.0159 176.241Z" fill="#4C4D58"/>
<path d="M72.8651 17.118C59.3202 25.0164 47.4561 37.7094 40.6182 50.8422C27.6964 75.6609 25.1143 112.153 40.4112 134.748C51.8698 151.671 78.2331 158.203 100 158.203C121.767 158.203 148.131 151.672 159.589 134.748C174.887 112.153 172.304 75.6609 159.382 50.8418C152.544 37.709 140.68 25.0168 127.136 17.118C127.362 18.5437 127.549 20.0039 127.713 21.4867C128.308 26.8359 128.46 32.5012 128.5 37.6066C135.807 38.8387 141.406 40.625 143.75 42.9688C156.25 55.4688 169.5 107.084 150 130.469C130.5 153.853 68.5002 153.542 50.0003 130.469C31.5003 107.396 43.7503 55.4688 56.2503 42.9688C58.594 40.625 64.1936 38.8387 71.5003 37.6066C71.5405 32.5012 71.6929 26.8359 72.2874 21.4867C72.4515 20.0039 72.6393 18.5437 72.8651 17.118Z" fill="#4C4D58"/>
</svg>
