<svg width="200" height="200" viewBox="0 0 200 200" fill="none" xmlns="http://www.w3.org/2000/svg">
<g clip-path="url(#clip0_134_60)">
<path d="M100 8.98438C93.7203 8.98438 87.3535 10.4414 81.1805 12.9844C80.35 15.5332 79.666 18.75 79.2754 22.2633C78.7637 26.8687 78.5996 31.9141 78.5449 36.6457C91.773 35.1988 108.227 35.1988 121.455 36.6457C121.4 31.9141 121.236 26.8684 120.725 22.2629C120.334 18.7504 119.65 15.5332 118.82 12.9844C112.646 10.4414 106.28 8.98438 100 8.98438ZM139.283 16.5359C142.921 19.2914 146.356 22.3477 149.549 25.6117C150.147 23.0141 151.381 20.6523 153.077 18.6996L139.283 16.5359ZM72.8648 17.118C59.3199 25.0164 47.4559 37.7094 40.618 50.8422C27.6961 75.6609 25.1141 112.153 40.4109 134.748C51.8695 151.671 78.2328 158.203 100 158.203C121.767 158.203 148.131 151.672 159.589 134.748C174.886 112.153 172.304 75.6609 159.382 50.8418C152.544 37.709 140.68 25.0168 127.136 17.118C127.361 18.5437 127.548 20.0039 127.713 21.4867C128.307 26.8359 128.46 32.5012 128.5 37.6066C135.806 38.8387 141.406 40.625 143.75 42.9688C156.25 55.4688 173.257 95.584 150 130.469C135.291 152.531 64.7086 152.531 50 130.469C26.7434 95.584 43.75 55.4688 56.25 42.9688C58.5938 40.625 64.1934 38.8387 71.5 37.6066C71.5402 32.5012 71.6926 26.8359 72.2871 21.4867C72.4512 20.0039 72.6391 18.5437 72.8648 17.118ZM25 18.75C21.548 18.75 18.75 21.548 18.75 25C18.7501 26.0189 18.9993 27.0223 19.4759 27.9228C19.9525 28.8233 20.642 29.5937 21.4844 30.1668V56.8359L28.5156 51.5625V30.1602C29.3571 29.5877 30.046 28.8184 30.5226 27.9191C30.9991 27.0198 31.2488 26.0177 31.25 25C31.25 21.548 28.452 18.75 25 18.75ZM165.16 20.1875C160.156 20.1875 156.176 24.168 156.176 29.1719C156.176 34.1758 160.156 38.1563 165.16 38.1563C170.164 38.1563 174.145 34.1758 174.145 29.1719C174.145 24.168 170.164 20.1875 165.16 20.1875ZM175.032 41.752C172.305 43.8992 168.877 45.1875 165.161 45.1875C164.87 45.1875 164.583 45.177 164.296 45.1613C164.613 45.7268 164.922 46.2958 165.226 46.8684L176.887 55.6145L175.032 41.752ZM81.7422 42.7285C75.0012 42.7637 67.1891 44.1961 60.948 49.0254C50.5441 57.0754 44.1379 93.8547 47.866 106.355C54.3441 82.227 60.3633 57.9094 90.0223 43.357C87.2833 42.9276 84.5145 42.7177 81.7422 42.7285ZM28.9863 59.998L15.6836 69.9758L10.0273 98.2602L24.9414 116.156C20.6652 97.9832 22.6852 77.5922 28.9863 59.998ZM171.014 59.998C177.314 77.5926 179.335 97.9832 175.059 116.156L189.973 98.2594L184.316 69.975L171.014 59.998ZM41.6582 146.848C40.2586 147.305 38.8254 148.178 37.6418 149.361C36.0262 150.977 35.0324 153.045 34.8434 154.871C34.9254 155.013 35.0789 155.323 35.5191 155.715C36.4773 156.57 38.1336 157.735 40.2562 158.98C44.5012 161.472 50.6273 164.354 57.5238 167.036C65.7961 170.254 75.2387 173.17 83.984 174.997V164.212C68.566 162.212 52.7746 157.054 41.6582 146.848ZM158.342 146.848C147.225 157.053 131.434 162.211 116.016 164.211V174.996C124.761 173.17 134.203 170.253 142.476 167.035C149.372 164.354 155.498 161.471 159.743 158.98C161.866 157.734 163.522 156.57 164.48 155.714C164.921 155.322 165.074 155.012 165.156 154.87C164.968 153.044 163.974 150.976 162.358 149.361C161.175 148.177 159.741 147.304 158.342 146.847V146.848ZM30.2039 160.391L7.03125 175.84V192.969H21.4844V185.938H28.5156V192.969H171.484V185.938H178.516V192.969H192.969V175.84L169.796 160.391C169.586 160.582 169.374 160.77 169.162 160.961C167.63 162.327 165.673 163.652 163.304 165.043C158.564 167.825 152.19 170.802 145.024 173.589C130.692 179.163 113.379 183.984 100 183.984C86.6211 183.984 69.3078 179.163 54.9758 173.59C47.8098 170.803 41.4359 167.825 36.6965 165.044C34.327 163.653 32.3699 162.327 30.8379 160.961C30.6258 160.77 30.4137 160.582 30.2039 160.391ZM91.0156 164.916V176.241C94.2328 176.695 97.2703 176.953 100 176.953C102.73 176.953 105.767 176.695 108.984 176.241V164.916C103.002 165.34 96.9977 165.34 91.0156 164.916Z" fill="#4C4D58"/>
</g>
<defs>
<clipPath id="clip0_134_60">
<rect width="200" height="200" fill="white"/>
</clipPath>
</defs>
</svg>
