<svg width="25" height="25" viewBox="0 0 25 25" fill="none" xmlns="http://www.w3.org/2000/svg">
<g filter="url(#filter0_d_20_794)">
<path d="M22.3894 1.79348C22.3808 1.75202 22.3606 1.71387 22.3312 1.68348C22.3017 1.65309 22.2642 1.63174 22.223 1.62192C19.4775 0.950668 13.1339 3.3427 9.69705 6.77817C9.08406 7.38621 8.52523 8.04652 8.0269 8.75161C6.96705 8.65786 5.90721 8.73614 5.00393 9.12989C2.45534 10.2516 1.7133 13.1785 1.50659 14.4375C1.49486 14.5065 1.49928 14.5772 1.51951 14.6441C1.53973 14.711 1.5752 14.7723 1.62313 14.8232C1.67106 14.8741 1.73015 14.9131 1.79573 14.9373C1.86132 14.9615 1.93163 14.9701 2.00112 14.9625L6.09377 14.5111C6.09669 14.8197 6.11531 15.1279 6.14955 15.4346C6.17015 15.6475 6.26468 15.8466 6.41674 15.9971L8.00159 17.5782C8.15226 17.73 8.3512 17.8245 8.56409 17.8454C8.86904 17.8794 9.17553 17.898 9.48237 17.9011L9.0333 21.9886C9.02581 22.0581 9.03452 22.1284 9.05873 22.1939C9.08295 22.2594 9.12202 22.3185 9.17288 22.3664C9.22374 22.4143 9.28501 22.4498 9.35188 22.47C9.41875 22.4903 9.48941 22.4948 9.5583 22.4832C10.815 22.2816 13.7471 21.5396 14.8622 18.991C15.256 18.0877 15.3366 17.033 15.2456 15.9783C15.9524 15.48 16.6145 14.921 17.2242 14.3077C20.6719 10.8774 23.0503 4.67536 22.3894 1.79348ZM13.7846 10.2155C13.4697 9.9009 13.2553 9.49999 13.1684 9.0635C13.0814 8.627 13.1259 8.17452 13.2962 7.7633C13.4664 7.35208 13.7548 7.0006 14.1248 6.7533C14.4949 6.506 14.93 6.374 15.375 6.374C15.8201 6.374 16.2552 6.506 16.6252 6.7533C16.9953 7.0006 17.2836 7.35208 17.4539 7.7633C17.6241 8.17452 17.6686 8.627 17.5817 9.0635C17.4947 9.49999 17.2803 9.9009 16.9655 10.2155C16.7567 10.4246 16.5088 10.5904 16.2359 10.7036C15.963 10.8167 15.6705 10.875 15.375 10.875C15.0796 10.875 14.787 10.8167 14.5141 10.7036C14.2412 10.5904 13.9933 10.4246 13.7846 10.2155Z" fill="#B8A2F8"/>
<path d="M7.89375 18.7233C7.63687 18.9806 7.22484 19.0809 6.72891 19.1667C5.61469 19.3566 4.63078 18.3938 4.83094 17.2673C4.90734 16.8403 5.13328 16.2417 5.27391 16.1011C5.30464 16.071 5.3251 16.0319 5.33238 15.9895C5.33965 15.947 5.33337 15.9034 5.31443 15.8647C5.29549 15.8261 5.26485 15.7943 5.22686 15.7741C5.18887 15.7538 5.14547 15.7461 5.10281 15.7519C4.47973 15.8281 3.90006 16.1106 3.45609 16.5544C2.35406 17.6573 2.25 21.75 2.25 21.75C2.25 21.75 6.345 21.6459 7.44703 20.543C7.89215 20.0993 8.175 19.5188 8.25 18.8948C8.26734 18.6989 8.02875 18.5822 7.89375 18.7233Z" fill="#B8A2F8"/>
</g>
<defs>
<filter id="filter0_d_20_794" x="0" y="0" width="26" height="26" filterUnits="userSpaceOnUse" color-interpolation-filters="sRGB">
<feFlood flood-opacity="0" result="BackgroundImageFix"/>
<feColorMatrix in="SourceAlpha" type="matrix" values="0 0 0 0 0 0 0 0 0 0 0 0 0 0 0 0 0 0 127 0" result="hardAlpha"/>
<feOffset dx="1" dy="1"/>
<feGaussianBlur stdDeviation="0.5"/>
<feComposite in2="hardAlpha" operator="out"/>
<feColorMatrix type="matrix" values="0 0 0 0 0.168627 0 0 0 0 0.0862745 0 0 0 0 0.403922 0 0 0 0.5 0"/>
<feBlend mode="normal" in2="BackgroundImageFix" result="effect1_dropShadow_20_794"/>
<feBlend mode="normal" in="SourceGraphic" in2="effect1_dropShadow_20_794" result="shape"/>
</filter>
</defs>
</svg>
