<svg width="114" height="42" viewBox="0 0 114 42" fill="none" xmlns="http://www.w3.org/2000/svg">
<g filter="url(#filter0_d_17_454)">
<rect x="5" y="5" width="102" height="30" rx="5" stroke="#B8A2F8" stroke-width="2" shape-rendering="crispEdges"/>
<path d="M36.6667 13.3333H23.3334C22.4167 13.3333 21.675 14.0833 21.675 14.9999L21.6667 24.9999C21.6667 25.9166 22.4167 26.6666 23.3334 26.6666H36.6667C37.5834 26.6666 38.3334 25.9166 38.3334 24.9999V14.9999C38.3334 14.0833 37.5834 13.3333 36.6667 13.3333ZM36.3334 16.8749L30.4417 20.5583C30.175 20.7249 29.825 20.7249 29.5584 20.5583L23.6667 16.8749C23.5831 16.828 23.51 16.7646 23.4516 16.6886C23.3932 16.6126 23.3509 16.5256 23.3272 16.4327C23.3034 16.3399 23.2988 16.2432 23.3135 16.1485C23.3282 16.0538 23.362 15.9631 23.4128 15.8818C23.4635 15.8006 23.5303 15.7305 23.609 15.6757C23.6876 15.621 23.7766 15.5828 23.8704 15.5635C23.9643 15.5442 24.0611 15.5441 24.155 15.5632C24.2489 15.5824 24.3379 15.6204 24.4167 15.6749L30 19.1666L35.5834 15.6749C35.6621 15.6204 35.7512 15.5824 35.8451 15.5632C35.939 15.5441 36.0358 15.5442 36.1296 15.5635C36.2235 15.5828 36.3124 15.621 36.3911 15.6757C36.4697 15.7305 36.5365 15.8006 36.5873 15.8818C36.6381 15.9631 36.6718 16.0538 36.6866 16.1485C36.7013 16.2432 36.6966 16.3399 36.6729 16.4327C36.6491 16.5256 36.6068 16.6126 36.5484 16.6886C36.4901 16.7646 36.4169 16.828 36.3334 16.8749Z" fill="#BAA3FD"/>
<path d="M51.232 25V14.78H57.364V16.306H52.954V18.966H56.874V20.478H52.954V23.474H57.364V25H51.232ZM59.1785 25V14.78H61.2505L62.2445 18.028C62.3472 18.3547 62.4312 18.6533 62.4965 18.924C62.5619 19.1947 62.6039 19.3907 62.6225 19.512C62.6412 19.3907 62.6832 19.1947 62.7485 18.924C62.8139 18.6533 62.8932 18.3547 62.9865 18.028L63.9385 14.78H66.0105V25H64.3725V21.822C64.3725 21.3553 64.3865 20.8467 64.4145 20.296C64.4425 19.7453 64.4752 19.1947 64.5125 18.644C64.5499 18.0933 64.5919 17.5707 64.6385 17.076C64.6945 16.5813 64.7412 16.1473 64.7785 15.774L63.4065 20.604H61.8105L60.3965 15.774C60.4432 16.1287 60.4899 16.5487 60.5365 17.034C60.5832 17.51 60.6252 18.0233 60.6625 18.574C60.7092 19.1153 60.7465 19.666 60.7745 20.226C60.8025 20.786 60.8165 21.318 60.8165 21.822V25H59.1785ZM67.2791 25L69.8551 14.78H72.1091L74.6991 25H72.9071L72.3471 22.522H69.6311L69.0711 25H67.2791ZM69.9531 21.094H72.0251L71.4091 18.35C71.3064 17.8927 71.2177 17.482 71.1431 17.118C71.0684 16.7447 71.0171 16.474 70.9891 16.306C70.9611 16.474 70.9097 16.7447 70.8351 17.118C70.7697 17.482 70.6811 17.888 70.5691 18.336L69.9531 21.094ZM76.4436 25V23.46H78.5016V16.32H76.4436V14.78H82.3236V16.32H80.2656V23.46H82.3236V25H76.4436ZM85.0201 25V14.78H86.7701V23.376H91.1101V25H85.0201Z" fill="#BAA3FD"/>
</g>
<defs>
<filter id="filter0_d_17_454" x="0" y="0" width="114" height="42" filterUnits="userSpaceOnUse" color-interpolation-filters="sRGB">
<feFlood flood-opacity="0" result="BackgroundImageFix"/>
<feColorMatrix in="SourceAlpha" type="matrix" values="0 0 0 0 0 0 0 0 0 0 0 0 0 0 0 0 0 0 127 0" result="hardAlpha"/>
<feOffset dx="1" dy="1"/>
<feGaussianBlur stdDeviation="2.5"/>
<feComposite in2="hardAlpha" operator="out"/>
<feColorMatrix type="matrix" values="0 0 0 0 0.168627 0 0 0 0 0.0862745 0 0 0 0 0.403922 0 0 0 0.2 0"/>
<feBlend mode="normal" in2="BackgroundImageFix" result="effect1_dropShadow_17_454"/>
<feBlend mode="normal" in="SourceGraphic" in2="effect1_dropShadow_17_454" result="shape"/>
</filter>
</defs>
</svg>
