<svg width="123" height="42" viewBox="0 0 123 42" fill="none" xmlns="http://www.w3.org/2000/svg">
<g filter="url(#filter0_d_17_440)">
<rect x="5" y="5" width="111" height="30" rx="5" stroke="#B8A2F8" stroke-width="2" shape-rendering="crispEdges"/>
<path d="M30 11.6667C28.9057 11.6667 27.822 11.8823 26.811 12.3011C25.7999 12.7199 24.8813 13.3337 24.1075 14.1075C22.5447 15.6703 21.6667 17.7899 21.6667 20.0001C21.6667 23.6834 24.0584 26.8084 27.3667 27.9167C27.7834 27.9834 27.9167 27.7251 27.9167 27.5001V26.0917C25.6084 26.5917 25.1167 24.9751 25.1167 24.9751C24.7334 24.0084 24.1917 23.7501 24.1917 23.7501C23.4334 23.2334 24.25 23.2501 24.25 23.2501C25.0834 23.3084 25.525 24.1084 25.525 24.1084C26.25 25.3751 27.475 25.0001 27.95 24.8001C28.025 24.2584 28.2417 23.8917 28.475 23.6834C26.625 23.4751 24.6834 22.7584 24.6834 19.5834C24.6834 18.6584 25 17.9167 25.5417 17.3251C25.4584 17.1167 25.1667 16.2501 25.625 15.1251C25.625 15.1251 26.325 14.9001 27.9167 15.9751C28.575 15.7917 29.2917 15.7001 30 15.7001C30.7084 15.7001 31.425 15.7917 32.0834 15.9751C33.675 14.9001 34.375 15.1251 34.375 15.1251C34.8334 16.2501 34.5417 17.1167 34.4584 17.3251C35 17.9167 35.3167 18.6584 35.3167 19.5834C35.3167 22.7667 33.3667 23.4667 31.5084 23.6751C31.8084 23.9334 32.0834 24.4417 32.0834 25.2167V27.5001C32.0834 27.7251 32.2167 27.9917 32.6417 27.9167C35.95 26.8001 38.3334 23.6834 38.3334 20.0001C38.3334 18.9057 38.1178 17.8221 37.699 16.8111C37.2802 15.8 36.6664 14.8813 35.8926 14.1075C35.1188 13.3337 34.2001 12.7199 33.189 12.3011C32.178 11.8823 31.0944 11.6667 30 11.6667Z" fill="#BAA3FD"/>
<path d="M54.256 25.14C53.6027 25.14 53.0287 25.0187 52.534 24.776C52.0487 24.524 51.6707 24.174 51.4 23.726C51.1387 23.2687 51.008 22.732 51.008 22.116V17.664C51.008 17.0387 51.1387 16.502 51.4 16.054C51.6707 15.606 52.0487 15.2607 52.534 15.018C53.0287 14.766 53.6027 14.64 54.256 14.64C54.9187 14.64 55.488 14.766 55.964 15.018C56.4493 15.2607 56.8273 15.606 57.098 16.054C57.3687 16.502 57.504 17.0387 57.504 17.664H55.74C55.74 17.1787 55.6093 16.81 55.348 16.558C55.096 16.306 54.732 16.18 54.256 16.18C53.78 16.18 53.4113 16.306 53.15 16.558C52.8887 16.81 52.758 17.174 52.758 17.65V22.116C52.758 22.592 52.8887 22.9607 53.15 23.222C53.4113 23.4833 53.78 23.614 54.256 23.614C54.732 23.614 55.096 23.4833 55.348 23.222C55.6093 22.9607 55.74 22.592 55.74 22.116V21.08H54.004V19.568H57.504V22.116C57.504 22.732 57.3687 23.2687 57.098 23.726C56.8273 24.174 56.4493 24.524 55.964 24.776C55.488 25.0187 54.9187 25.14 54.256 25.14ZM59.6545 25V23.46H61.7125V16.32H59.6545V14.78H65.5345V16.32H63.4765V23.46H65.5345V25H59.6545ZM70.1071 25V16.404H67.4331V14.78H74.5451V16.404H71.8711V25H70.1071ZM76.2616 25V14.78H78.0116V18.882H80.7556V14.78H82.5056V25H80.7556V20.506H78.0116V25H76.2616ZM87.7781 25.14C86.7795 25.14 85.9955 24.8693 85.4261 24.328C84.8661 23.7773 84.5861 23.0307 84.5861 22.088V14.78H86.3501V22.074C86.3501 22.5593 86.4715 22.9373 86.7141 23.208C86.9568 23.4787 87.3115 23.614 87.7781 23.614C88.2355 23.614 88.5855 23.4787 88.8281 23.208C89.0801 22.9373 89.2061 22.5593 89.2061 22.074V14.78H90.9701V22.088C90.9701 23.0307 90.6901 23.7773 90.1301 24.328C89.5701 24.8693 88.7861 25.14 87.7781 25.14ZM93.0507 25V14.78H96.1867C97.176 14.78 97.96 15.018 98.5387 15.494C99.1173 15.9607 99.4067 16.6 99.4067 17.412C99.4067 17.8693 99.304 18.266 99.0987 18.602C98.8933 18.938 98.6133 19.1993 98.2587 19.386C97.9133 19.5727 97.512 19.666 97.0547 19.666V19.61C97.5493 19.6007 97.988 19.694 98.3707 19.89C98.7627 20.0767 99.0707 20.3567 99.2947 20.73C99.528 21.1033 99.6447 21.556 99.6447 22.088C99.6447 22.676 99.5093 23.1893 99.2387 23.628C98.968 24.0667 98.5853 24.4073 98.0907 24.65C97.6053 24.8833 97.022 25 96.3407 25H93.0507ZM94.7587 23.544H96.2287C96.742 23.544 97.1433 23.4087 97.4327 23.138C97.7313 22.858 97.8807 22.48 97.8807 22.004C97.8807 21.528 97.7313 21.1453 97.4327 20.856C97.1433 20.5573 96.742 20.408 96.2287 20.408H94.7587V23.544ZM94.7587 18.994H96.1587C96.6253 18.994 96.9893 18.8727 97.2507 18.63C97.5213 18.378 97.6567 18.0373 97.6567 17.608C97.6567 17.1787 97.5213 16.8427 97.2507 16.6C96.9893 16.3573 96.6253 16.236 96.1587 16.236H94.7587V18.994Z" fill="#BAA3FD"/>
</g>
<defs>
<filter id="filter0_d_17_440" x="0" y="0" width="123" height="42" filterUnits="userSpaceOnUse" color-interpolation-filters="sRGB">
<feFlood flood-opacity="0" result="BackgroundImageFix"/>
<feColorMatrix in="SourceAlpha" type="matrix" values="0 0 0 0 0 0 0 0 0 0 0 0 0 0 0 0 0 0 127 0" result="hardAlpha"/>
<feOffset dx="1" dy="1"/>
<feGaussianBlur stdDeviation="2.5"/>
<feComposite in2="hardAlpha" operator="out"/>
<feColorMatrix type="matrix" values="0 0 0 0 0.168627 0 0 0 0 0.0862745 0 0 0 0 0.403922 0 0 0 0.2 0"/>
<feBlend mode="normal" in2="BackgroundImageFix" result="effect1_dropShadow_17_440"/>
<feBlend mode="normal" in="SourceGraphic" in2="effect1_dropShadow_17_440" result="shape"/>
</filter>
</defs>
</svg>
