<svg width="140" height="42" viewBox="0 0 140 42" fill="none" xmlns="http://www.w3.org/2000/svg">
<g filter="url(#filter0_d_17_450)">
<rect x="5" y="5" width="128" height="30" rx="5" stroke="#B8A2F8" stroke-width="2" shape-rendering="crispEdges"/>
<path d="M35.8333 12.5C36.2754 12.5 36.6993 12.6756 37.0118 12.9882C37.3244 13.3007 37.5 13.7246 37.5 14.1667V25.8333C37.5 26.2754 37.3244 26.6993 37.0118 27.0118C36.6993 27.3244 36.2754 27.5 35.8333 27.5H24.1667C23.7246 27.5 23.3007 27.3244 22.9882 27.0118C22.6756 26.6993 22.5 26.2754 22.5 25.8333V14.1667C22.5 13.7246 22.6756 13.3007 22.9882 12.9882C23.3007 12.6756 23.7246 12.5 24.1667 12.5H35.8333ZM35.4167 25.4167V21C35.4167 20.2795 35.1304 19.5885 34.621 19.079C34.1115 18.5696 33.4205 18.2833 32.7 18.2833C31.9917 18.2833 31.1667 18.7167 30.7667 19.3667V18.4417H28.4417V25.4167H30.7667V21.3083C30.7667 20.6667 31.2833 20.1417 31.925 20.1417C32.2344 20.1417 32.5312 20.2646 32.75 20.4834C32.9688 20.7022 33.0917 20.9989 33.0917 21.3083V25.4167H35.4167ZM25.7333 17.1333C26.1046 17.1333 26.4607 16.9858 26.7233 16.7233C26.9858 16.4607 27.1333 16.1046 27.1333 15.7333C27.1333 14.9583 26.5083 14.325 25.7333 14.325C25.3598 14.325 25.0016 14.4734 24.7375 14.7375C24.4734 15.0016 24.325 15.3598 24.325 15.7333C24.325 16.5083 24.9583 17.1333 25.7333 17.1333ZM26.8917 25.4167V18.4417H24.5833V25.4167H26.8917Z" fill="#BAA3FD"/>
<path d="M51.442 25V14.78H53.192V23.376H57.532V25H51.442ZM59.6545 25V23.46H61.7125V16.32H59.6545V14.78H65.5345V16.32H63.4765V23.46H65.5345V25H59.6545ZM67.7971 25V14.78H69.9391L72.7811 23.04C72.7531 22.7413 72.7204 22.3913 72.6831 21.99C72.6551 21.5793 72.6317 21.164 72.6131 20.744C72.5944 20.3147 72.5851 19.9413 72.5851 19.624V14.78H74.1811V25H72.0391L69.2251 16.74C69.2437 17.0107 69.2671 17.3373 69.2951 17.72C69.3231 18.1027 69.3464 18.4947 69.3651 18.896C69.3837 19.2973 69.3931 19.666 69.3931 20.002V25H67.7971ZM76.2476 25V14.78H77.9976V18.91H79.2156L81.1336 14.78H83.0376L80.7556 19.68L83.1496 25H81.2036L79.1876 20.506H77.9976V25H76.2476ZM84.8101 25V14.78H90.9421V16.306H86.5321V18.966H90.4521V20.478H86.5321V23.474H90.9421V25H84.8101ZM93.0227 25V14.78H96.0607C96.7513 14.78 97.3487 14.9107 97.8527 15.172C98.366 15.4333 98.7627 15.802 99.0427 16.278C99.3227 16.754 99.4627 17.3187 99.4627 17.972V21.794C99.4627 22.438 99.3227 23.0027 99.0427 23.488C98.7627 23.964 98.366 24.3373 97.8527 24.608C97.3487 24.8693 96.7513 25 96.0607 25H93.0227ZM94.7727 23.39H96.0607C96.5647 23.39 96.966 23.25 97.2647 22.97C97.5633 22.6807 97.7127 22.2887 97.7127 21.794V17.972C97.7127 17.4867 97.5633 17.104 97.2647 16.824C96.966 16.5347 96.5647 16.39 96.0607 16.39H94.7727V23.39ZM101.627 25V23.46H103.685V16.32H101.627V14.78H107.507V16.32H105.449V23.46H107.507V25H101.627ZM109.77 25V14.78H111.912L114.754 23.04C114.726 22.7413 114.693 22.3913 114.656 21.99C114.628 21.5793 114.604 21.164 114.586 20.744C114.567 20.3147 114.558 19.9413 114.558 19.624V14.78H116.154V25H114.012L111.198 16.74C111.216 17.0107 111.24 17.3373 111.268 17.72C111.296 18.1027 111.319 18.4947 111.338 18.896C111.356 19.2973 111.366 19.666 111.366 20.002V25H109.77Z" fill="#BAA3FD"/>
</g>
<defs>
<filter id="filter0_d_17_450" x="0" y="0" width="140" height="42" filterUnits="userSpaceOnUse" color-interpolation-filters="sRGB">
<feFlood flood-opacity="0" result="BackgroundImageFix"/>
<feColorMatrix in="SourceAlpha" type="matrix" values="0 0 0 0 0 0 0 0 0 0 0 0 0 0 0 0 0 0 127 0" result="hardAlpha"/>
<feOffset dx="1" dy="1"/>
<feGaussianBlur stdDeviation="2.5"/>
<feComposite in2="hardAlpha" operator="out"/>
<feColorMatrix type="matrix" values="0 0 0 0 0.168627 0 0 0 0 0.0862745 0 0 0 0 0.403922 0 0 0 0.2 0"/>
<feBlend mode="normal" in2="BackgroundImageFix" result="effect1_dropShadow_17_450"/>
<feBlend mode="normal" in="SourceGraphic" in2="effect1_dropShadow_17_450" result="shape"/>
</filter>
</defs>
</svg>
