<svg width="25" height="24" viewBox="0 0 25 24" fill="none" xmlns="http://www.w3.org/2000/svg">
<g filter="url(#filter0_d_19_788)">
<path d="M12.713 13.713C12.9043 13.521 13 13.2833 13 13V8C13 7.71667 12.904 7.47933 12.712 7.288C12.52 7.09667 12.2827 7.00067 12 7C11.7173 6.99933 11.48 7.09533 11.288 7.288C11.096 7.48067 11 7.718 11 8V13C11 13.2833 11.096 13.521 11.288 13.713C11.48 13.905 11.7173 14.0007 12 14C12.2827 13.9993 12.5203 13.9033 12.713 13.712M15.713 12.212C15.9043 12.0213 16 11.784 16 11.5V9C16 8.71667 15.904 8.47933 15.712 8.288C15.52 8.09667 15.2827 8.00067 15 8C14.7173 7.99933 14.48 8.09533 14.288 8.288C14.096 8.48067 14 8.718 14 9V11.5C14 11.7833 14.096 12.021 14.288 12.213C14.48 12.405 14.7173 12.5007 15 12.5C15.2827 12.4993 15.5203 12.4033 15.713 12.212ZM9.713 11.712C9.90433 11.5213 10 11.284 10 11V9C10 8.71667 9.904 8.47933 9.712 8.288C9.52 8.09667 9.28267 8.00067 9 8C8.71733 7.99933 8.48 8.09533 8.288 8.288C8.096 8.48067 8 8.718 8 9V11C8 11.2833 8.096 11.521 8.288 11.713C8.48 11.905 8.71733 12.0007 9 12C9.28267 11.9993 9.52033 11.9033 9.713 11.712ZM7 22C6.71667 22 6.47933 21.904 6.288 21.712C6.09667 21.52 6.00067 21.2827 6 21V17.7C5.05 16.8333 4.31267 15.821 3.788 14.663C3.26333 13.505 3.00067 12.284 3 11C3 8.5 3.875 6.375 5.625 4.625C7.375 2.875 9.5 2 12 2C14.0833 2 15.9293 2.61267 17.538 3.838C19.1467 5.06333 20.1923 6.659 20.675 8.625L21.975 13.75C22.0583 14.0667 22 14.3543 21.8 14.613C21.6 14.8717 21.3333 15.0007 21 15H19V18C19 18.55 18.8043 19.021 18.413 19.413C18.0217 19.805 17.5507 20.0007 17 20H15V21C15 21.2833 14.904 21.521 14.712 21.713C14.52 21.905 14.2827 22.0007 14 22H7Z" fill="#B8A2F8"/>
</g>
<defs>
<filter id="filter0_d_19_788" x="0" y="0" width="26" height="26" filterUnits="userSpaceOnUse" color-interpolation-filters="sRGB">
<feFlood flood-opacity="0" result="BackgroundImageFix"/>
<feColorMatrix in="SourceAlpha" type="matrix" values="0 0 0 0 0 0 0 0 0 0 0 0 0 0 0 0 0 0 127 0" result="hardAlpha"/>
<feOffset dx="1" dy="1"/>
<feGaussianBlur stdDeviation="0.5"/>
<feComposite in2="hardAlpha" operator="out"/>
<feColorMatrix type="matrix" values="0 0 0 0 0.168627 0 0 0 0 0.0862745 0 0 0 0 0.403922 0 0 0 0.5 0"/>
<feBlend mode="normal" in2="BackgroundImageFix" result="effect1_dropShadow_19_788"/>
<feBlend mode="normal" in="SourceGraphic" in2="effect1_dropShadow_19_788" result="shape"/>
</filter>
</defs>
</svg>
