<svg width="24" height="24" viewBox="0 0 24 24" fill="none" xmlns="http://www.w3.org/2000/svg">
<g filter="url(#filter0_d_19_783)">
<path fill-rule="evenodd" clip-rule="evenodd" d="M11 5C11.0001 4.40898 11.1748 3.83115 11.5021 3.33904C11.8294 2.84693 12.2948 2.46247 12.8398 2.2339C13.3849 2.00534 13.9853 1.94286 14.5657 2.05431C15.1461 2.16575 15.6807 2.44616 16.1023 2.86033C16.524 3.27451 16.8139 3.80399 16.9356 4.38233C17.0574 4.96067 17.0057 5.5621 16.7869 6.11113C16.5681 6.66016 16.192 7.13233 15.7058 7.46837C15.2196 7.80442 14.6449 7.98937 14.054 8L13.836 8.653C14.3517 8.9657 14.7993 9.37887 15.1521 9.86794C15.505 10.357 15.7559 10.912 15.89 11.5H17.209C17.4388 10.9736 17.8427 10.5424 18.3531 10.2788C18.8634 10.0152 19.4488 9.93539 20.0111 10.0527C20.5733 10.1701 21.078 10.4774 21.4403 10.9231C21.8025 11.3688 22.0003 11.9257 22.0003 12.5C22.0003 13.0744 21.8025 13.6312 21.4403 14.0769C21.078 14.5226 20.5733 14.8299 20.0111 14.9473C19.4488 15.0646 18.8634 14.9848 18.3531 14.7212C17.8427 14.4576 17.4388 14.0264 17.209 13.5H15.889C15.7225 14.2294 15.3767 14.9058 14.883 15.468L15.587 16.172C16.1217 15.9622 16.7123 15.9429 17.2595 16.1173C17.8068 16.2918 18.2772 16.6493 18.5919 17.1299C18.9065 17.6104 19.046 18.1846 18.987 18.7559C18.9281 19.3273 18.6742 19.8609 18.268 20.267C17.8619 20.6731 17.3283 20.927 16.757 20.986C16.1856 21.045 15.6114 20.9054 15.1309 20.5908C14.6503 20.2762 14.2928 19.8058 14.1183 19.2585C13.9439 18.7113 13.9632 18.1207 14.173 17.586L13.239 16.652C12.6882 16.8822 12.097 17.0005 11.5 17C10.8129 17 10.1349 16.8426 9.51802 16.54L8.64702 17.586C8.98034 18.2102 9.0823 18.9321 8.93487 19.6242C8.78745 20.3163 8.40014 20.934 7.84137 21.3681C7.28261 21.8023 6.58837 22.0249 5.88132 21.9968C5.17427 21.9686 4.49994 21.6914 3.97747 21.2142C3.455 20.737 3.11804 20.0905 3.02612 19.3889C2.93421 18.6872 3.09325 17.9757 3.47516 17.38C3.85706 16.7843 4.43724 16.3428 5.11317 16.1335C5.7891 15.9241 6.51728 15.9604 7.16902 16.236L7.96302 15.282C7.3378 14.4896 6.99846 13.5093 7.00002 12.5C7.00002 11.765 7.17602 11.071 7.48902 10.459L6.62102 9.735C6.10758 9.99262 5.52109 10.0656 4.96019 9.94154C4.39929 9.81754 3.89821 9.50415 3.54123 9.05409C3.18424 8.60404 2.99314 8.04478 3.00006 7.47038C3.00698 6.89597 3.2115 6.34148 3.57922 5.90016C3.94694 5.45883 4.45543 5.15761 5.01915 5.04715C5.58288 4.93669 6.16744 5.02373 6.67453 5.29364C7.18161 5.56355 7.58028 5.99985 7.80347 6.52917C8.02666 7.05848 8.06075 7.64851 7.90002 8.2L8.76802 8.924C9.67169 8.23146 10.8051 7.90895 11.938 8.022L12.156 7.368C11.7958 7.08731 11.5044 6.72809 11.3041 6.31772C11.1038 5.90735 10.9998 5.45666 11 5Z" fill="#B8A2F8"/>
</g>
<defs>
<filter id="filter0_d_19_783" x="0" y="0" width="26" height="26" filterUnits="userSpaceOnUse" color-interpolation-filters="sRGB">
<feFlood flood-opacity="0" result="BackgroundImageFix"/>
<feColorMatrix in="SourceAlpha" type="matrix" values="0 0 0 0 0 0 0 0 0 0 0 0 0 0 0 0 0 0 127 0" result="hardAlpha"/>
<feOffset dx="1" dy="1"/>
<feGaussianBlur stdDeviation="0.5"/>
<feComposite in2="hardAlpha" operator="out"/>
<feColorMatrix type="matrix" values="0 0 0 0 0.168627 0 0 0 0 0.0862745 0 0 0 0 0.403922 0 0 0 0.5 0"/>
<feBlend mode="normal" in2="BackgroundImageFix" result="effect1_dropShadow_19_783"/>
<feBlend mode="normal" in="SourceGraphic" in2="effect1_dropShadow_19_783" result="shape"/>
</filter>
</defs>
</svg>
