<svg width="148" height="42" viewBox="0 0 148 42" fill="none" xmlns="http://www.w3.org/2000/svg">
<g filter="url(#filter0_d_17_458)">
<rect x="5" y="5" width="136" height="30" rx="5" stroke="#B8A2F8" stroke-width="2" shape-rendering="crispEdges"/>
<path fill-rule="evenodd" clip-rule="evenodd" d="M22.8867 12.8867C21.6667 14.1084 21.6667 16.0717 21.6667 20.0001C21.6667 23.9284 21.6667 25.8926 22.8867 27.1126C24.1084 28.3334 26.0717 28.3334 30 28.3334C33.9284 28.3334 35.8925 28.3334 37.1125 27.1126C38.3334 25.8934 38.3334 23.9284 38.3334 20.0001C38.3334 16.0717 38.3334 14.1076 37.1125 12.8867C35.8934 11.6667 33.9284 11.6667 30 11.6667C26.0717 11.6667 24.1075 11.6667 22.8867 12.8867ZM25.3534 17.9334C25.4595 17.8062 25.6118 17.7262 25.7768 17.7112C25.9418 17.6962 26.106 17.7474 26.2334 17.8534L26.4642 18.0451C26.9684 18.4651 27.3975 18.8226 27.6942 19.1517C28.01 19.5017 28.2559 19.9026 28.2559 20.4167C28.2559 20.9309 28.01 21.3326 27.6942 21.6817C27.3975 22.0109 26.9684 22.3684 26.4642 22.7884L26.2334 22.9801C26.1706 23.035 26.0976 23.0767 26.0185 23.1029C25.9394 23.1292 25.8558 23.1393 25.7727 23.1328C25.6896 23.1262 25.6087 23.1031 25.5347 23.0648C25.4607 23.0265 25.395 22.9738 25.3417 22.9098C25.2883 22.8458 25.2483 22.7717 25.224 22.692C25.1997 22.6123 25.1916 22.5285 25.2001 22.4456C25.2087 22.3627 25.2337 22.2824 25.2737 22.2093C25.3138 22.1362 25.3681 22.0719 25.4334 22.0201L25.6284 21.8576C26.1775 21.3992 26.5367 21.0992 26.7667 20.8442C26.985 20.6026 27.0059 20.4884 27.0059 20.4167C27.0059 20.3451 26.985 20.2317 26.7667 19.9892C26.5359 19.7342 26.1775 19.4334 25.6284 18.9759L25.4334 18.8134C25.3061 18.7073 25.2262 18.555 25.2112 18.39C25.1962 18.225 25.2473 18.0607 25.3534 17.9334ZM34.7917 22.5001C34.7917 22.6658 34.7258 22.8248 34.6086 22.942C34.4914 23.0592 34.3324 23.1251 34.1667 23.1251H30C29.8343 23.1251 29.6753 23.0592 29.5581 22.942C29.4409 22.8248 29.375 22.6658 29.375 22.5001C29.375 22.3343 29.4409 22.1753 29.5581 22.0581C29.6753 21.9409 29.8343 21.8751 30 21.8751H34.1667C34.3324 21.8751 34.4914 21.9409 34.6086 22.0581C34.7258 22.1753 34.7917 22.3343 34.7917 22.5001Z" fill="#BAA3FD"/>
<path d="M51.078 25V14.78H54.48C55.1613 14.78 55.754 14.9107 56.258 15.172C56.7713 15.4333 57.168 15.802 57.448 16.278C57.728 16.7447 57.868 17.2953 57.868 17.93C57.868 18.5553 57.7233 19.106 57.434 19.582C57.154 20.058 56.762 20.4267 56.258 20.688C55.754 20.9493 55.1613 21.08 54.48 21.08H52.828V25H51.078ZM52.828 19.498H54.48C54.9653 19.498 55.3527 19.358 55.642 19.078C55.9407 18.7887 56.09 18.406 56.09 17.93C56.09 17.4447 55.9407 17.062 55.642 16.782C55.3527 16.502 54.9653 16.362 54.48 16.362H52.828V19.498ZM62.5945 25.14C61.9412 25.14 61.3719 25.0187 60.8865 24.776C60.4105 24.524 60.0419 24.174 59.7805 23.726C59.5285 23.2687 59.4025 22.732 59.4025 22.116V17.664C59.4025 17.048 59.5285 16.516 59.7805 16.068C60.0419 15.6107 60.4105 15.2607 60.8865 15.018C61.3719 14.766 61.9412 14.64 62.5945 14.64C63.2572 14.64 63.8265 14.766 64.3025 15.018C64.7785 15.2607 65.1425 15.6107 65.3945 16.068C65.6559 16.516 65.7865 17.0433 65.7865 17.65V22.116C65.7865 22.732 65.6559 23.2687 65.3945 23.726C65.1425 24.174 64.7785 24.524 64.3025 24.776C63.8265 25.0187 63.2572 25.14 62.5945 25.14ZM62.5945 23.6C63.0705 23.6 63.4299 23.474 63.6725 23.222C63.9152 22.9607 64.0365 22.592 64.0365 22.116V17.664C64.0365 17.1787 63.9152 16.81 63.6725 16.558C63.4299 16.306 63.0705 16.18 62.5945 16.18C62.1185 16.18 61.7592 16.306 61.5165 16.558C61.2739 16.81 61.1525 17.1787 61.1525 17.664V22.116C61.1525 22.592 61.2739 22.9607 61.5165 23.222C61.7685 23.474 62.1279 23.6 62.5945 23.6ZM67.8531 25V14.78H71.0871C71.7684 14.78 72.3564 14.906 72.8511 15.158C73.3551 15.41 73.7471 15.7647 74.0271 16.222C74.3071 16.67 74.4471 17.202 74.4471 17.818C74.4471 18.49 74.2744 19.0827 73.9291 19.596C73.5931 20.1093 73.1357 20.4733 72.5571 20.688L74.5871 25H72.6271L70.8491 20.94H69.6031V25H67.8531ZM69.6031 19.4H71.0871C71.5817 19.4 71.9691 19.2647 72.2491 18.994C72.5291 18.7233 72.6691 18.35 72.6691 17.874C72.6691 17.3887 72.5291 17.0107 72.2491 16.74C71.9691 16.46 71.5817 16.32 71.0871 16.32H69.6031V19.4ZM78.5016 25V16.404H75.8276V14.78H82.9396V16.404H80.2656V25H78.5016ZM84.6981 25V14.78H91.0541V16.404H86.4201V19.134H90.6901V20.758H86.4481V25H84.6981ZM96.1727 25.14C95.5193 25.14 94.95 25.0187 94.4647 24.776C93.9887 24.524 93.62 24.174 93.3587 23.726C93.1067 23.2687 92.9807 22.732 92.9807 22.116V17.664C92.9807 17.048 93.1067 16.516 93.3587 16.068C93.62 15.6107 93.9887 15.2607 94.4647 15.018C94.95 14.766 95.5193 14.64 96.1727 14.64C96.8353 14.64 97.4047 14.766 97.8807 15.018C98.3567 15.2607 98.7207 15.6107 98.9727 16.068C99.234 16.516 99.3647 17.0433 99.3647 17.65V22.116C99.3647 22.732 99.234 23.2687 98.9727 23.726C98.7207 24.174 98.3567 24.524 97.8807 24.776C97.4047 25.0187 96.8353 25.14 96.1727 25.14ZM96.1727 23.6C96.6487 23.6 97.008 23.474 97.2507 23.222C97.4933 22.9607 97.6147 22.592 97.6147 22.116V17.664C97.6147 17.1787 97.4933 16.81 97.2507 16.558C97.008 16.306 96.6487 16.18 96.1727 16.18C95.6967 16.18 95.3373 16.306 95.0947 16.558C94.852 16.81 94.7307 17.1787 94.7307 17.664V22.116C94.7307 22.592 94.852 22.9607 95.0947 23.222C95.3467 23.474 95.706 23.6 96.1727 23.6ZM101.809 25V14.78H103.559V23.376H107.899V25H101.809ZM110.022 25V23.46H112.08V16.32H110.022V14.78H115.902V16.32H113.844V23.46H115.902V25H110.022ZM121.356 25.14C120.703 25.14 120.134 25.0187 119.648 24.776C119.172 24.524 118.804 24.174 118.542 23.726C118.29 23.2687 118.164 22.732 118.164 22.116V17.664C118.164 17.048 118.29 16.516 118.542 16.068C118.804 15.6107 119.172 15.2607 119.648 15.018C120.134 14.766 120.703 14.64 121.356 14.64C122.019 14.64 122.588 14.766 123.064 15.018C123.54 15.2607 123.904 15.6107 124.156 16.068C124.418 16.516 124.548 17.0433 124.548 17.65V22.116C124.548 22.732 124.418 23.2687 124.156 23.726C123.904 24.174 123.54 24.524 123.064 24.776C122.588 25.0187 122.019 25.14 121.356 25.14ZM121.356 23.6C121.832 23.6 122.192 23.474 122.434 23.222C122.677 22.9607 122.798 22.592 122.798 22.116V17.664C122.798 17.1787 122.677 16.81 122.434 16.558C122.192 16.306 121.832 16.18 121.356 16.18C120.88 16.18 120.521 16.306 120.278 16.558C120.036 16.81 119.914 17.1787 119.914 17.664V22.116C119.914 22.592 120.036 22.9607 120.278 23.222C120.53 23.474 120.89 23.6 121.356 23.6Z" fill="#BAA3FD"/>
</g>
<defs>
<filter id="filter0_d_17_458" x="0" y="0" width="148" height="42" filterUnits="userSpaceOnUse" color-interpolation-filters="sRGB">
<feFlood flood-opacity="0" result="BackgroundImageFix"/>
<feColorMatrix in="SourceAlpha" type="matrix" values="0 0 0 0 0 0 0 0 0 0 0 0 0 0 0 0 0 0 127 0" result="hardAlpha"/>
<feOffset dx="1" dy="1"/>
<feGaussianBlur stdDeviation="2.5"/>
<feComposite in2="hardAlpha" operator="out"/>
<feColorMatrix type="matrix" values="0 0 0 0 0.168627 0 0 0 0 0.0862745 0 0 0 0 0.403922 0 0 0 0.2 0"/>
<feBlend mode="normal" in2="BackgroundImageFix" result="effect1_dropShadow_17_458"/>
<feBlend mode="normal" in="SourceGraphic" in2="effect1_dropShadow_17_458" result="shape"/>
</filter>
</defs>
</svg>
