<svg width="25" height="25" viewBox="0 0 25 25" fill="none" xmlns="http://www.w3.org/2000/svg">
<g filter="url(#filter0_d_19_791)">
<path d="M5.36999 1.68744C5.49474 1.79615 5.58004 1.94307 5.6126 2.10532C5.64516 2.26756 5.62314 2.43601 5.54999 2.58444C5.53667 2.62819 5.53009 2.67371 5.53049 2.71944C5.53049 2.81394 5.55449 2.99394 5.78099 3.21894C5.89049 3.32844 5.97449 3.40644 6.06599 3.49194C6.14099 3.56094 6.22049 3.63294 6.32099 3.73194C6.51599 3.91794 6.72149 4.13694 6.90599 4.41144C7.28849 4.98594 7.49999 5.70444 7.49999 6.74994C7.49999 7.32294 7.40549 7.85994 7.23299 8.33544C6.74399 9.68544 5.64449 10.4999 4.49999 10.4999C3.35549 10.4999 2.25599 9.68394 1.76699 8.33544C1.5866 7.82645 1.49625 7.28993 1.49999 6.74994C1.49999 6.26094 1.63049 5.67744 1.81049 5.13894C1.99049 4.60044 2.24249 4.04094 2.53349 3.59094C2.87999 3.00594 3.36749 2.51544 3.74549 2.18544C3.95349 2.0041 4.16972 1.83241 4.39349 1.67094L4.43849 1.64094L4.45199 1.63044L4.45649 1.62744L4.45949 1.62594C4.59703 1.53425 4.76101 1.49058 4.92594 1.5017C5.09087 1.51282 5.2475 1.57812 5.37149 1.68744M4.49999 11.9999C5.45274 12.0024 6.37584 11.6688 7.10699 11.0579C7.13699 11.1519 7.16549 11.2469 7.19249 11.3429C7.49999 12.4709 7.49999 13.8659 7.49999 14.9444V14.9999C7.49999 18.0869 6.92249 19.9199 6.26849 21.0104C6.02069 21.4393 5.69632 21.8191 5.31149 22.1309C5.15841 22.2494 4.99234 22.3501 4.81649 22.4309C4.81649 22.4309 4.62599 22.4999 4.49999 22.4999C4.39186 22.4913 4.28539 22.4681 4.18349 22.4309C4.00764 22.3501 3.84157 22.2494 3.68849 22.1309C3.30365 21.8191 2.97929 21.4393 2.73149 21.0104C2.07749 19.9214 1.49999 18.0869 1.49999 14.9999V14.9459C1.49999 13.8659 1.49999 12.4724 1.80749 11.3414C1.83349 11.2474 1.86199 11.1524 1.89299 11.0564C2.62351 11.6689 3.54668 12.0041 4.49999 12.0029M10.497 16.4624C9.97705 16.4044 9.46561 16.2861 8.97299 16.1099C8.99099 15.7319 8.99999 15.3419 8.99999 14.9399V14.4959C9.46499 14.7164 9.96899 14.8709 10.497 14.9459V11.9999C10.497 11.2043 10.8131 10.4412 11.3757 9.87862C11.9383 9.31601 12.7013 8.99994 13.497 8.99994H16.4445C16.3252 8.17058 16.0091 7.38182 15.5226 6.69959C15.0362 6.01735 14.3935 5.46146 13.6483 5.07836C12.9031 4.69527 12.0771 4.4961 11.2392 4.49751C10.4013 4.49891 9.57589 4.70085 8.83199 5.08644C8.71415 4.59605 8.51977 4.1273 8.25599 3.69744C9.22818 3.21697 10.3018 2.9778 11.386 3.0002C12.4702 3.02259 13.5331 3.30588 14.4846 3.82608C15.4361 4.34628 16.2483 5.08809 16.8524 5.98869C17.4565 6.8893 17.8347 7.92219 17.955 8.99994H19.4955C20.2911 8.99994 21.0542 9.31601 21.6168 9.87862C22.1794 10.4412 22.4955 11.2043 22.4955 11.9999V17.9999C22.4955 18.7956 22.1794 19.5586 21.6168 20.1213C21.0542 20.6839 20.2911 20.9999 19.4955 20.9999H13.4955C12.6998 20.9999 11.9368 20.6839 11.3742 20.1213C10.8116 19.5586 10.4955 18.7956 10.4955 17.9999L10.497 16.4624ZM17.9565 10.4999C17.7866 12.022 17.1041 13.4411 16.0211 14.5241C14.9382 15.607 13.5191 16.2895 11.997 16.4594V17.9999C11.997 18.3978 12.155 18.7793 12.4363 19.0606C12.7176 19.3419 13.0992 19.4999 13.497 19.4999H19.497C19.8948 19.4999 20.2763 19.3419 20.5576 19.0606C20.839 18.7793 20.997 18.3978 20.997 17.9999V11.9999C20.997 11.6021 20.839 11.2206 20.5576 10.9393C20.2763 10.658 19.8948 10.4999 19.497 10.4999H17.9565ZM16.4445 10.4999H13.497C13.0992 10.4999 12.7176 10.658 12.4363 10.9393C12.155 11.2206 11.997 11.6021 11.997 11.9999V14.9474C13.1191 14.7857 14.1588 14.2651 14.9605 13.4634C15.7622 12.6617 16.2828 11.6221 16.4445 10.4999Z" fill="#B8A2F8"/>
</g>
<defs>
<filter id="filter0_d_19_791" x="0" y="0" width="26" height="26" filterUnits="userSpaceOnUse" color-interpolation-filters="sRGB">
<feFlood flood-opacity="0" result="BackgroundImageFix"/>
<feColorMatrix in="SourceAlpha" type="matrix" values="0 0 0 0 0 0 0 0 0 0 0 0 0 0 0 0 0 0 127 0" result="hardAlpha"/>
<feOffset dx="1" dy="1"/>
<feGaussianBlur stdDeviation="0.5"/>
<feComposite in2="hardAlpha" operator="out"/>
<feColorMatrix type="matrix" values="0 0 0 0 0.168627 0 0 0 0 0.0862745 0 0 0 0 0.403922 0 0 0 0.5 0"/>
<feBlend mode="normal" in2="BackgroundImageFix" result="effect1_dropShadow_19_791"/>
<feBlend mode="normal" in="SourceGraphic" in2="effect1_dropShadow_19_791" result="shape"/>
</filter>
</defs>
</svg>
