<svg width="112" height="46" viewBox="0 0 112 46" fill="none" xmlns="http://www.w3.org/2000/svg">
<g filter="url(#filter0_dn_17_520)">
<rect x="7" y="7" width="96" height="30" rx="15" fill="#B8A2F8" shape-rendering="crispEdges"/>
<rect x="7" y="7" width="96" height="30" rx="15" stroke="#B8A2F8" stroke-width="2" shape-rendering="crispEdges"/>
<path d="M32.95 18.2499C33.5821 18.2499 34.1883 18.501 34.6352 18.948C35.0822 19.3949 35.3333 20.0012 35.3333 20.6333V23.7833C35.3333 24.0962 35.2716 24.4062 35.1519 24.6953C35.0321 24.9845 34.8565 25.2472 34.6352 25.4685C34.4139 25.6898 34.1512 25.8654 33.862 25.9852C33.5729 26.1049 33.2629 26.1666 32.95 26.1666H27C27 26.4916 27.2666 26.9666 27.5916 26.9666H31.1666V28.3666C31.1666 28.9987 30.9155 29.6049 30.4686 30.0519C30.0216 30.4988 29.4154 30.7499 28.7833 30.7499H25.2166C24.5845 30.7499 23.9783 30.4988 23.5314 30.0519C23.0844 29.6049 22.8333 28.9987 22.8333 28.3666V25.2416C22.8333 24.929 22.895 24.6195 23.0149 24.3308C23.1347 24.0421 23.3104 23.7799 23.5319 23.5593C23.7533 23.3386 24.0161 23.1638 24.3052 23.045C24.5943 22.9261 24.904 22.8655 25.2166 22.8666H29.5916C29.9042 22.8666 30.2137 22.8049 30.5024 22.685C30.7911 22.5651 31.0533 22.3894 31.274 22.168C31.4946 21.9466 31.6694 21.6838 31.7882 21.3947C31.9071 21.1056 31.9677 20.7958 31.9666 20.4833V18.2499H32.95ZM29.3833 28.0749C29.05 28.0749 28.7833 28.3249 28.7833 28.8166C28.7833 29.3083 29.05 29.4083 29.3833 29.4083C29.461 29.4083 29.5379 29.3929 29.6097 29.3632C29.6815 29.3335 29.7467 29.2899 29.8017 29.235C29.8566 29.18 29.9002 29.1148 29.9299 29.043C29.9597 28.9712 29.975 28.8943 29.975 28.8166C29.975 28.3249 29.7083 28.0749 29.3833 28.0749ZM21.05 26.5833C20.4179 26.5833 19.8116 26.3322 19.3647 25.8852C18.9177 25.4382 18.6666 24.832 18.6666 24.1999V21.0499C18.6666 20.7369 18.7283 20.427 18.848 20.1379C18.9678 19.8487 19.1434 19.586 19.3647 19.3646C19.8116 18.9177 20.4179 18.6666 21.05 18.6666H27C27 18.3416 26.7333 17.8666 26.4083 17.8666H22.8333V16.4666C22.8333 15.8345 23.0844 15.2283 23.5314 14.7813C23.9783 14.3344 24.5845 14.0833 25.2166 14.0833H28.7833C29.0963 14.0833 29.4062 14.1449 29.6954 14.2647C29.9845 14.3844 30.2473 14.56 30.4686 14.7813C30.6899 15.0026 30.8654 15.2654 30.9852 15.5545C31.105 15.8437 31.1666 16.1536 31.1666 16.4666V19.5916C31.1666 19.9042 31.1049 20.2137 30.985 20.5024C30.8652 20.7911 30.6895 21.0533 30.4681 21.2739C30.2466 21.4946 29.9838 21.6693 29.6947 21.7882C29.4056 21.9071 29.0959 21.9677 28.7833 21.9666H24.4083C24.0957 21.9666 23.7862 22.0283 23.4975 22.1482C23.2088 22.268 22.9466 22.4437 22.726 22.6651C22.5053 22.8866 22.3305 23.1494 22.2117 23.4385C22.0928 23.7276 22.0322 24.0373 22.0333 24.3499V26.5833H21.05ZM24.6166 16.7583C24.95 16.7583 25.2166 16.5083 25.2166 16.0166C25.2166 15.5249 24.95 15.4249 24.6166 15.4249C24.2916 15.4249 24.025 15.5249 24.025 16.0166C24.025 16.5083 24.2916 16.7583 24.6166 16.7583Z" fill="#2B1667"/>
<path d="M43.078 27V16.78H46.48C47.1613 16.78 47.754 16.9107 48.258 17.172C48.7713 17.4333 49.168 17.802 49.448 18.278C49.728 18.7447 49.868 19.2953 49.868 19.93C49.868 20.5553 49.7233 21.106 49.434 21.582C49.154 22.058 48.762 22.4267 48.258 22.688C47.754 22.9493 47.1613 23.08 46.48 23.08H44.828V27H43.078ZM44.828 21.498H46.48C46.9653 21.498 47.3527 21.358 47.642 21.078C47.9407 20.7887 48.09 20.406 48.09 19.93C48.09 19.4447 47.9407 19.062 47.642 18.782C47.3527 18.502 46.9653 18.362 46.48 18.362H44.828V21.498ZM53.7125 27V23.29L50.7165 16.78H52.5505L54.1465 20.322C54.2679 20.602 54.3705 20.8773 54.4545 21.148C54.5385 21.4187 54.5945 21.6287 54.6225 21.778C54.6599 21.6287 54.7159 21.4187 54.7905 21.148C54.8745 20.8773 54.9772 20.602 55.0985 20.322L56.6525 16.78H58.4725L55.4765 23.29V27H53.7125ZM62.1071 27V18.404H59.4331V16.78H66.5451V18.404H63.8711V27H62.1071ZM68.2616 27V16.78H70.0116V20.882H72.7556V16.78H74.5056V27H72.7556V22.506H70.0116V27H68.2616ZM79.7781 27.14C79.1248 27.14 78.5555 27.0187 78.0701 26.776C77.5941 26.524 77.2255 26.174 76.9641 25.726C76.7121 25.2687 76.5861 24.732 76.5861 24.116V19.664C76.5861 19.048 76.7121 18.516 76.9641 18.068C77.2255 17.6107 77.5941 17.2607 78.0701 17.018C78.5555 16.766 79.1248 16.64 79.7781 16.64C80.4408 16.64 81.0101 16.766 81.4861 17.018C81.9621 17.2607 82.3261 17.6107 82.5781 18.068C82.8395 18.516 82.9701 19.0433 82.9701 19.65V24.116C82.9701 24.732 82.8395 25.2687 82.5781 25.726C82.3261 26.174 81.9621 26.524 81.4861 26.776C81.0101 27.0187 80.4408 27.14 79.7781 27.14ZM79.7781 25.6C80.2541 25.6 80.6135 25.474 80.8561 25.222C81.0988 24.9607 81.2201 24.592 81.2201 24.116V19.664C81.2201 19.1787 81.0988 18.81 80.8561 18.558C80.6135 18.306 80.2541 18.18 79.7781 18.18C79.3021 18.18 78.9428 18.306 78.7001 18.558C78.4575 18.81 78.3361 19.1787 78.3361 19.664V24.116C78.3361 24.592 78.4575 24.9607 78.7001 25.222C78.9521 25.474 79.3115 25.6 79.7781 25.6ZM84.9807 27V16.78H87.1227L89.9647 25.04C89.9367 24.7413 89.904 24.3913 89.8667 23.99C89.8387 23.5793 89.8153 23.164 89.7967 22.744C89.778 22.3147 89.7687 21.9413 89.7687 21.624V16.78H91.3647V27H89.2227L86.4087 18.74C86.4273 19.0107 86.4507 19.3373 86.4787 19.72C86.5067 20.1027 86.53 20.4947 86.5487 20.896C86.5673 21.2973 86.5767 21.666 86.5767 22.002V27H84.9807Z" fill="#2B1667"/>
</g>
<defs>
<filter id="filter0_dn_17_520" x="0" y="0" width="112" height="46" filterUnits="userSpaceOnUse" color-interpolation-filters="sRGB">
<feFlood flood-opacity="0" result="BackgroundImageFix"/>
<feColorMatrix in="SourceAlpha" type="matrix" values="0 0 0 0 0 0 0 0 0 0 0 0 0 0 0 0 0 0 127 0" result="hardAlpha"/>
<feOffset dx="1" dy="1"/>
<feGaussianBlur stdDeviation="3.5"/>
<feComposite in2="hardAlpha" operator="out"/>
<feColorMatrix type="matrix" values="0 0 0 0 0.168627 0 0 0 0 0.0862745 0 0 0 0 0.403922 0 0 0 0.5 0"/>
<feBlend mode="normal" in2="BackgroundImageFix" result="effect1_dropShadow_17_520"/>
<feBlend mode="normal" in="SourceGraphic" in2="BackgroundImageFix" result="shape"/>
<feTurbulence type="fractalNoise" baseFrequency="2 2" stitchTiles="stitch" numOctaves="3" result="noise" seed="9250" />
<feColorMatrix in="noise" type="luminanceToAlpha" result="alphaNoise" />
<feComponentTransfer in="alphaNoise" result="coloredNoise1">
<feFuncA type="discrete" tableValues="0 0 0 0 0 0 0 0 0 0 0 0 1 1 1 1 1 1 1 1 1 1 1 1 1 1 1 1 1 1 1 1 1 1 1 1 1 1 0 0 0 0 0 0 0 0 0 0 0 0 0 0 0 0 0 0 0 0 0 0 0 0 0 0 0 0 0 0 0 0 0 0 0 0 0 0 0 0 0 0 0 0 0 0 0 0 0 0 0 0 0 0 0 0 0 0 0 0 0 0 "/>
</feComponentTransfer>
<feComposite operator="in" in2="shape" in="coloredNoise1" result="noise1Clipped" />
<feFlood flood-color="rgba(43, 22, 103, 0.5)" result="color1Flood" />
<feComposite operator="in" in2="noise1Clipped" in="color1Flood" result="color1" />
<feMerge result="effect2_noise_17_520">
<feMergeNode in="shape" />
<feMergeNode in="color1" />
</feMerge>
<feBlend mode="normal" in="effect2_noise_17_520" in2="effect1_dropShadow_17_520" result="effect2_noise_17_520"/>
</filter>
</defs>
</svg>
