<svg width="145" height="46" viewBox="0 0 145 46" fill="none" xmlns="http://www.w3.org/2000/svg">
<g filter="url(#filter0_dn_17_495)">
<rect x="7" y="7" width="129" height="30" rx="15" fill="#B8A2F8" shape-rendering="crispEdges"/>
<rect x="7" y="7" width="129" height="30" rx="15" stroke="#B8A2F8" stroke-width="2" shape-rendering="crispEdges"/>
<path d="M19.5 14.5H34.5V29.5H19.5V14.5ZM28.425 26.8833C28.8417 27.7 29.6833 28.325 31 28.325C32.3333 28.325 33.3333 27.6333 33.3333 26.3583C33.3333 25.1833 32.6583 24.6583 31.4583 24.1417L31.1083 23.9917C30.5 23.7333 30.2417 23.5583 30.2417 23.1417C30.2417 22.8 30.5 22.5333 30.9167 22.5333C31.3167 22.5333 31.5833 22.7083 31.825 23.1417L32.9167 22.4167C32.4583 21.6167 31.8083 21.3083 30.9167 21.3083C29.6583 21.3083 28.85 22.1083 28.85 23.1667C28.85 24.3167 29.525 24.8583 30.5417 25.2917L30.8917 25.4417C31.5417 25.725 31.925 25.9 31.925 26.3833C31.925 26.7833 31.55 27.075 30.9667 27.075C30.275 27.075 29.875 26.7167 29.575 26.2167L28.425 26.8833ZM27.8333 21.375H23.6667V22.625H24.9167V28.6667H26.375V22.625H27.8333V21.375Z" fill="#2B1667"/>
<path d="M45.318 27V18.404H42.644V16.78H49.756V18.404H47.082V27H45.318ZM53.7125 27V23.29L50.7165 16.78H52.5505L54.1465 20.322C54.2679 20.602 54.3705 20.8773 54.4545 21.148C54.5385 21.4187 54.5945 21.6287 54.6225 21.778C54.6599 21.6287 54.7159 21.4187 54.7905 21.148C54.8745 20.8773 54.9772 20.602 55.0985 20.322L56.6525 16.78H58.4725L55.4765 23.29V27H53.7125ZM59.8671 27V16.78H63.2691C63.9504 16.78 64.5431 16.9107 65.0471 17.172C65.5604 17.4333 65.9571 17.802 66.2371 18.278C66.5171 18.7447 66.6571 19.2953 66.6571 19.93C66.6571 20.5553 66.5124 21.106 66.2231 21.582C65.9431 22.058 65.5511 22.4267 65.0471 22.688C64.5431 22.9493 63.9504 23.08 63.2691 23.08H61.6171V27H59.8671ZM61.6171 21.498H63.2691C63.7544 21.498 64.1417 21.358 64.4311 21.078C64.7297 20.7887 64.8791 20.406 64.8791 19.93C64.8791 19.4447 64.7297 19.062 64.4311 18.782C64.1417 18.502 63.7544 18.362 63.2691 18.362H61.6171V21.498ZM68.4156 27V16.78H74.5476V18.306H70.1376V20.966H74.0576V22.478H70.1376V25.474H74.5476V27H68.4156ZM79.8061 27.14C79.1061 27.14 78.4995 27.0233 77.9861 26.79C77.4728 26.5567 77.0761 26.2253 76.7961 25.796C76.5255 25.3573 76.3855 24.844 76.3761 24.256H78.1261C78.1261 24.676 78.2755 25.0073 78.5741 25.25C78.8821 25.4833 79.2975 25.6 79.8201 25.6C80.3241 25.6 80.7161 25.4833 80.9961 25.25C81.2855 25.0167 81.4301 24.6947 81.4301 24.284C81.4301 23.9387 81.3275 23.64 81.1221 23.388C80.9261 23.1267 80.6415 22.9493 80.2681 22.856L79.0921 22.534C78.2895 22.3287 77.6688 21.96 77.2301 21.428C76.8008 20.896 76.5861 20.252 76.5861 19.496C76.5861 18.9173 76.7168 18.4133 76.9781 17.984C77.2395 17.5547 77.6081 17.2233 78.0841 16.99C78.5695 16.7567 79.1388 16.64 79.7921 16.64C80.7815 16.64 81.5655 16.8967 82.1441 17.41C82.7228 17.914 83.0168 18.5953 83.0261 19.454H81.2761C81.2761 19.0527 81.1455 18.74 80.8841 18.516C80.6228 18.2827 80.2541 18.166 79.7781 18.166C79.3208 18.166 78.9661 18.2733 78.7141 18.488C78.4621 18.7027 78.3361 19.006 78.3361 19.398C78.3361 19.7527 78.4295 20.056 78.6161 20.308C78.8121 20.5507 79.0921 20.7233 79.4561 20.826L80.6741 21.162C81.4861 21.3673 82.1068 21.736 82.5361 22.268C82.9655 22.7907 83.1801 23.4393 83.1801 24.214C83.1801 24.7927 83.0401 25.306 82.7601 25.754C82.4801 26.1927 82.0881 26.5333 81.5841 26.776C81.0801 27.0187 80.4875 27.14 79.8061 27.14ZM88.2287 27.14C87.5753 27.14 87.0013 27.0187 86.5067 26.776C86.0213 26.524 85.6433 26.174 85.3727 25.726C85.1113 25.2687 84.9807 24.732 84.9807 24.116V19.664C84.9807 19.0387 85.1113 18.502 85.3727 18.054C85.6433 17.606 86.0213 17.2607 86.5067 17.018C87.0013 16.766 87.5753 16.64 88.2287 16.64C88.8913 16.64 89.4607 16.766 89.9367 17.018C90.422 17.2607 90.8 17.606 91.0707 18.054C91.3413 18.502 91.4767 19.0387 91.4767 19.664H89.7127C89.7127 19.1787 89.582 18.81 89.3207 18.558C89.0687 18.306 88.7047 18.18 88.2287 18.18C87.7527 18.18 87.384 18.306 87.1227 18.558C86.8613 18.81 86.7307 19.174 86.7307 19.65V24.116C86.7307 24.592 86.8613 24.9607 87.1227 25.222C87.384 25.474 87.7527 25.6 88.2287 25.6C88.7047 25.6 89.0687 25.474 89.3207 25.222C89.582 24.9607 89.7127 24.592 89.7127 24.116H91.4767C91.4767 24.7227 91.3413 25.2547 91.0707 25.712C90.8 26.1693 90.422 26.524 89.9367 26.776C89.4607 27.0187 88.8913 27.14 88.2287 27.14ZM93.4312 27V16.78H96.6652C97.3465 16.78 97.9345 16.906 98.4292 17.158C98.9332 17.41 99.3252 17.7647 99.6052 18.222C99.8852 18.67 100.025 19.202 100.025 19.818C100.025 20.49 99.8525 21.0827 99.5072 21.596C99.1712 22.1093 98.7139 22.4733 98.1352 22.688L100.165 27H98.2052L96.4272 22.94H95.1812V27H93.4312ZM95.1812 21.4H96.6652C97.1599 21.4 97.5472 21.2647 97.8272 20.994C98.1072 20.7233 98.2472 20.35 98.2472 19.874C98.2472 19.3887 98.1072 19.0107 97.8272 18.74C97.5472 18.46 97.1599 18.32 96.6652 18.32H95.1812V21.4ZM102.022 27V25.46H104.08V18.32H102.022V16.78H107.902V18.32H105.844V25.46H107.902V27H102.022ZM110.234 27V16.78H113.636C114.318 16.78 114.91 16.9107 115.414 17.172C115.928 17.4333 116.324 17.802 116.604 18.278C116.884 18.7447 117.024 19.2953 117.024 19.93C117.024 20.5553 116.88 21.106 116.59 21.582C116.31 22.058 115.918 22.4267 115.414 22.688C114.91 22.9493 114.318 23.08 113.636 23.08H111.984V27H110.234ZM111.984 21.498H113.636C114.122 21.498 114.509 21.358 114.798 21.078C115.097 20.7887 115.246 20.406 115.246 19.93C115.246 19.4447 115.097 19.062 114.798 18.782C114.509 18.502 114.122 18.362 113.636 18.362H111.984V21.498ZM120.869 27V18.404H118.195V16.78H125.307V18.404H122.633V27H120.869Z" fill="#2B1667"/>
</g>
<defs>
<filter id="filter0_dn_17_495" x="0" y="0" width="145" height="46" filterUnits="userSpaceOnUse" color-interpolation-filters="sRGB">
<feFlood flood-opacity="0" result="BackgroundImageFix"/>
<feColorMatrix in="SourceAlpha" type="matrix" values="0 0 0 0 0 0 0 0 0 0 0 0 0 0 0 0 0 0 127 0" result="hardAlpha"/>
<feOffset dx="1" dy="1"/>
<feGaussianBlur stdDeviation="3.5"/>
<feComposite in2="hardAlpha" operator="out"/>
<feColorMatrix type="matrix" values="0 0 0 0 0.168627 0 0 0 0 0.0862745 0 0 0 0 0.403922 0 0 0 0.5 0"/>
<feBlend mode="normal" in2="BackgroundImageFix" result="effect1_dropShadow_17_495"/>
<feBlend mode="normal" in="SourceGraphic" in2="BackgroundImageFix" result="shape"/>
<feTurbulence type="fractalNoise" baseFrequency="2 2" stitchTiles="stitch" numOctaves="3" result="noise" seed="9250" />
<feColorMatrix in="noise" type="luminanceToAlpha" result="alphaNoise" />
<feComponentTransfer in="alphaNoise" result="coloredNoise1">
<feFuncA type="discrete" tableValues="0 0 0 0 0 0 0 0 0 0 0 0 1 1 1 1 1 1 1 1 1 1 1 1 1 1 1 1 1 1 1 1 1 1 1 1 1 1 0 0 0 0 0 0 0 0 0 0 0 0 0 0 0 0 0 0 0 0 0 0 0 0 0 0 0 0 0 0 0 0 0 0 0 0 0 0 0 0 0 0 0 0 0 0 0 0 0 0 0 0 0 0 0 0 0 0 0 0 0 0 "/>
</feComponentTransfer>
<feComposite operator="in" in2="shape" in="coloredNoise1" result="noise1Clipped" />
<feFlood flood-color="rgba(43, 22, 103, 0.5)" result="color1Flood" />
<feComposite operator="in" in2="noise1Clipped" in="color1Flood" result="color1" />
<feMerge result="effect2_noise_17_495">
<feMergeNode in="shape" />
<feMergeNode in="color1" />
</feMerge>
<feBlend mode="normal" in="effect2_noise_17_495" in2="effect1_dropShadow_17_495" result="effect2_noise_17_495"/>
</filter>
</defs>
</svg>
